# MagicaVoxel @ Ephtracy

# group
o 

# material
mtllib bomb.mtl
usemtl palette

# normals
vn -1 0 0
vn 1 0 0
vn 0 0 1
vn 0 0 -1
vn 0 -1 0
vn 0 1 0

# texcoords
vt 0.841797 0.5
vt 0.955078 0.5
vt 0.966797 0.5

# verts
v -0.2 0 0
v -0.2 0 -0.1
v -0.2 0.1 0
v -0.2 0.1 -0.1
v 0.2 0 -0.1
v 0.2 0 -0.3
v 0.2 0.1 -0.1
v 0.2 0.1 -0.3
v 0.3 0 0
v 0.3 0 -0.3
v 0.3 0.1 0
v 0.3 0.1 -0.3
v -0.2 0 0
v -0.2 0.1 0
v 0 0 0
v 0 0.1 0
v 0.1 0 0
v 0.1 0.1 0
v 0.2 0 0
v 0.2 0.1 0
v 0.3 0 0
v 0.3 0.1 0
v -0.2 0 -0.1
v -0.2 0.1 -0.1
v 0 0 -0.1
v 0 0.1 -0.1
v 0.1 0 -0.1
v 0.1 0.1 -0.1
v 0.2 0 -0.1
v 0.2 0.1 -0.1
v 0.2 0 -0.3
v 0.2 0.1 -0.3
v 0.3 0 -0.3
v 0.3 0.1 -0.3
v -0.2 0 0
v 0 0 0
v 0.1 0 0
v 0.2 0 0
v 0.3 0 0
v -0.2 0 -0.1
v 0 0 -0.1
v 0.1 0 -0.1
v 0.2 0 -0.1
v 0.2 0 -0.3
v 0.3 0 -0.3
v -0.2 0.1 0
v 0 0.1 0
v 0.1 0.1 0
v 0.2 0.1 0
v 0.3 0.1 0
v -0.2 0.1 -0.1
v 0 0.1 -0.1
v 0.1 0.1 -0.1
v 0.2 0.1 -0.1
v 0.2 0.1 -0.3
v 0.3 0.1 -0.3

# faces
f 3/1/1 2/1/1 1/1/1
f 4/1/1 2/1/1 3/1/1
f 7/2/1 6/2/1 5/2/1
f 8/2/1 6/2/1 7/2/1
f 9/2/2 10/2/2 11/2/2
f 11/2/2 10/2/2 12/2/2
f 15/1/3 14/1/3 13/1/3
f 16/1/3 14/1/3 15/1/3
f 17/3/3 16/3/3 15/3/3
f 18/3/3 16/3/3 17/3/3
f 19/1/3 18/1/3 17/1/3
f 20/1/3 18/1/3 19/1/3
f 21/2/3 20/2/3 19/2/3
f 22/2/3 20/2/3 21/2/3
f 23/1/4 24/1/4 25/1/4
f 25/1/4 24/1/4 26/1/4
f 25/3/4 26/3/4 27/3/4
f 27/3/4 26/3/4 28/3/4
f 27/1/4 28/1/4 29/1/4
f 29/1/4 28/1/4 30/1/4
f 31/2/4 32/2/4 33/2/4
f 33/2/4 32/2/4 34/2/4
f 40/1/5 36/1/5 35/1/5
f 41/3/5 37/3/5 36/3/5
f 41/1/5 36/1/5 40/1/5
f 42/1/5 38/1/5 37/1/5
f 42/3/5 37/3/5 41/3/5
f 43/2/5 39/2/5 38/2/5
f 43/1/5 38/1/5 42/1/5
f 44/2/5 39/2/5 43/2/5
f 45/2/5 39/2/5 44/2/5
f 46/1/6 47/1/6 51/1/6
f 47/3/6 48/3/6 52/3/6
f 51/1/6 47/1/6 52/1/6
f 48/1/6 49/1/6 53/1/6
f 52/3/6 48/3/6 53/3/6
f 49/2/6 50/2/6 54/2/6
f 53/1/6 49/1/6 54/1/6
f 54/2/6 50/2/6 55/2/6
f 55/2/6 50/2/6 56/2/6
