# MagicaVoxel @ Ephtracy

# group
o 

# material
mtllib bomb.mtl
usemtl palette

# normals
vn -1 0 0
vn 1 0 0
vn 0 0 1
vn 0 0 -1
vn 0 -1 0
vn 0 1 0

# texcoords
vt 0.849609 0.5
vt 0.966797 0.5
vt 0.994141 0.5

# verts
v -0.5 0 -0.2
v -0.5 0 -0.5
v -0.5 0.1 -0.2
v -0.5 0.1 -0.3
v -0.5 0.1 -0.4
v -0.5 0.1 -0.5
v -0.5 0.2 -0.3
v -0.5 0.2 -0.4
v 0.4 0 -0.2
v 0.4 0 -0.5
v 0.4 0.1 -0.2
v 0.4 0.1 -0.3
v 0.4 0.1 -0.4
v 0.4 0.1 -0.5
v 0.4 0.2 -0.3
v 0.4 0.2 -0.4
v -0.5 0 -0.2
v -0.5 0.1 -0.2
v -0.4 0 -0.2
v -0.4 0.1 -0.2
v -0.3 0 -0.2
v -0.3 0.1 -0.2
v -0.2 0 -0.2
v -0.2 0.1 -0.2
v 0.1 0 -0.2
v 0.1 0.1 -0.2
v 0.2 0 -0.2
v 0.2 0.1 -0.2
v 0.3 0 -0.2
v 0.3 0.1 -0.2
v 0.4 0 -0.2
v 0.4 0.1 -0.2
v -0.5 0.1 -0.3
v -0.5 0.2 -0.3
v -0.4 0.1 -0.3
v -0.4 0.2 -0.3
v -0.3 0.1 -0.3
v -0.3 0.2 -0.3
v -0.2 0.1 -0.3
v -0.2 0.2 -0.3
v 0.1 0.1 -0.3
v 0.1 0.2 -0.3
v 0.2 0.1 -0.3
v 0.2 0.2 -0.3
v 0.3 0.1 -0.3
v 0.3 0.2 -0.3
v 0.4 0.1 -0.3
v 0.4 0.2 -0.3
v -0.5 0.1 -0.4
v -0.5 0.2 -0.4
v -0.4 0.1 -0.4
v -0.4 0.2 -0.4
v -0.3 0.1 -0.4
v -0.3 0.2 -0.4
v -0.2 0.1 -0.4
v -0.2 0.2 -0.4
v 0.1 0.1 -0.4
v 0.1 0.2 -0.4
v 0.2 0.1 -0.4
v 0.2 0.2 -0.4
v 0.3 0.1 -0.4
v 0.3 0.2 -0.4
v 0.4 0.1 -0.4
v 0.4 0.2 -0.4
v -0.5 0 -0.5
v -0.5 0.1 -0.5
v -0.4 0 -0.5
v -0.4 0.1 -0.5
v -0.3 0 -0.5
v -0.3 0.1 -0.5
v -0.2 0 -0.5
v -0.2 0.1 -0.5
v 0.1 0 -0.5
v 0.1 0.1 -0.5
v 0.2 0 -0.5
v 0.2 0.1 -0.5
v 0.3 0 -0.5
v 0.3 0.1 -0.5
v 0.4 0 -0.5
v 0.4 0.1 -0.5
v -0.5 0 -0.2
v -0.4 0 -0.2
v -0.3 0 -0.2
v -0.2 0 -0.2
v 0.1 0 -0.2
v 0.2 0 -0.2
v 0.3 0 -0.2
v 0.4 0 -0.2
v -0.3 0 -0.3
v -0.2 0 -0.3
v 0.1 0 -0.3
v 0.2 0 -0.3
v -0.3 0 -0.4
v -0.2 0 -0.4
v 0.1 0 -0.4
v 0.2 0 -0.4
v -0.5 0 -0.5
v -0.4 0 -0.5
v -0.3 0 -0.5
v -0.2 0 -0.5
v 0.1 0 -0.5
v 0.2 0 -0.5
v 0.3 0 -0.5
v 0.4 0 -0.5
v -0.5 0.1 -0.2
v -0.4 0.1 -0.2
v -0.3 0.1 -0.2
v -0.2 0.1 -0.2
v 0.1 0.1 -0.2
v 0.2 0.1 -0.2
v 0.3 0.1 -0.2
v 0.4 0.1 -0.2
v -0.5 0.1 -0.3
v -0.4 0.1 -0.3
v -0.3 0.1 -0.3
v -0.2 0.1 -0.3
v 0.1 0.1 -0.3
v 0.2 0.1 -0.3
v 0.3 0.1 -0.3
v 0.4 0.1 -0.3
v -0.5 0.1 -0.4
v -0.4 0.1 -0.4
v -0.3 0.1 -0.4
v -0.2 0.1 -0.4
v 0.1 0.1 -0.4
v 0.2 0.1 -0.4
v 0.3 0.1 -0.4
v 0.4 0.1 -0.4
v -0.5 0.1 -0.5
v -0.4 0.1 -0.5
v -0.3 0.1 -0.5
v -0.2 0.1 -0.5
v 0.1 0.1 -0.5
v 0.2 0.1 -0.5
v 0.3 0.1 -0.5
v 0.4 0.1 -0.5
v -0.5 0.2 -0.3
v -0.4 0.2 -0.3
v -0.3 0.2 -0.3
v -0.2 0.2 -0.3
v 0.1 0.2 -0.3
v 0.2 0.2 -0.3
v 0.3 0.2 -0.3
v 0.4 0.2 -0.3
v -0.5 0.2 -0.4
v -0.4 0.2 -0.4
v -0.3 0.2 -0.4
v -0.2 0.2 -0.4
v 0.1 0.2 -0.4
v 0.2 0.2 -0.4
v 0.3 0.2 -0.4
v 0.4 0.2 -0.4

# faces
f 3/3/1 2/3/1 1/3/1
f 4/3/1 2/3/1 3/3/1
f 5/3/1 2/3/1 4/3/1
f 6/3/1 2/3/1 5/3/1
f 7/3/1 5/3/1 4/3/1
f 8/3/1 5/3/1 7/3/1
f 9/3/2 10/3/2 11/3/2
f 11/3/2 10/3/2 12/3/2
f 12/3/2 10/3/2 13/3/2
f 13/3/2 10/3/2 14/3/2
f 12/3/2 13/3/2 15/3/2
f 15/3/2 13/3/2 16/3/2
f 19/3/3 18/3/3 17/3/3
f 20/3/3 18/3/3 19/3/3
f 21/1/3 20/1/3 19/1/3
f 22/1/3 20/1/3 21/1/3
f 23/2/3 22/2/3 21/2/3
f 24/2/3 22/2/3 23/2/3
f 25/1/3 24/1/3 23/1/3
f 26/1/3 24/1/3 25/1/3
f 27/2/3 26/2/3 25/2/3
f 28/2/3 26/2/3 27/2/3
f 29/1/3 28/1/3 27/1/3
f 30/1/3 28/1/3 29/1/3
f 31/3/3 30/3/3 29/3/3
f 32/3/3 30/3/3 31/3/3
f 35/3/3 34/3/3 33/3/3
f 36/3/3 34/3/3 35/3/3
f 37/1/3 36/1/3 35/1/3
f 38/1/3 36/1/3 37/1/3
f 39/2/3 38/2/3 37/2/3
f 40/2/3 38/2/3 39/2/3
f 41/1/3 40/1/3 39/1/3
f 42/1/3 40/1/3 41/1/3
f 43/2/3 42/2/3 41/2/3
f 44/2/3 42/2/3 43/2/3
f 45/1/3 44/1/3 43/1/3
f 46/1/3 44/1/3 45/1/3
f 47/3/3 46/3/3 45/3/3
f 48/3/3 46/3/3 47/3/3
f 49/3/4 50/3/4 51/3/4
f 51/3/4 50/3/4 52/3/4
f 51/1/4 52/1/4 53/1/4
f 53/1/4 52/1/4 54/1/4
f 53/2/4 54/2/4 55/2/4
f 55/2/4 54/2/4 56/2/4
f 55/1/4 56/1/4 57/1/4
f 57/1/4 56/1/4 58/1/4
f 57/2/4 58/2/4 59/2/4
f 59/2/4 58/2/4 60/2/4
f 59/1/4 60/1/4 61/1/4
f 61/1/4 60/1/4 62/1/4
f 61/3/4 62/3/4 63/3/4
f 63/3/4 62/3/4 64/3/4
f 65/3/4 66/3/4 67/3/4
f 67/3/4 66/3/4 68/3/4
f 67/1/4 68/1/4 69/1/4
f 69/1/4 68/1/4 70/1/4
f 69/2/4 70/2/4 71/2/4
f 71/2/4 70/2/4 72/2/4
f 71/1/4 72/1/4 73/1/4
f 73/1/4 72/1/4 74/1/4
f 73/2/4 74/2/4 75/2/4
f 75/2/4 74/2/4 76/2/4
f 75/1/4 76/1/4 77/1/4
f 77/1/4 76/1/4 78/1/4
f 77/3/4 78/3/4 79/3/4
f 79/3/4 78/3/4 80/3/4
f 89/1/5 83/1/5 82/1/5
f 89/2/5 84/2/5 83/2/5
f 90/1/5 85/1/5 84/1/5
f 90/2/5 84/2/5 89/2/5
f 91/2/5 86/2/5 85/2/5
f 91/1/5 85/1/5 90/1/5
f 92/1/5 87/1/5 86/1/5
f 92/2/5 86/2/5 91/2/5
f 93/1/5 91/1/5 90/1/5
f 93/1/5 89/1/5 82/1/5
f 93/1/5 92/1/5 91/1/5
f 93/1/5 90/1/5 89/1/5
f 94/1/5 92/1/5 93/1/5
f 95/1/5 92/1/5 94/1/5
f 96/1/5 87/1/5 92/1/5
f 96/1/5 92/1/5 95/1/5
f 97/3/5 82/3/5 81/3/5
f 98/1/5 93/1/5 82/1/5
f 98/3/5 82/3/5 97/3/5
f 99/2/5 94/2/5 93/2/5
f 99/1/5 93/1/5 98/1/5
f 100/1/5 95/1/5 94/1/5
f 100/2/5 94/2/5 99/2/5
f 101/2/5 96/2/5 95/2/5
f 101/1/5 95/1/5 100/1/5
f 102/1/5 87/1/5 96/1/5
f 102/2/5 96/2/5 101/2/5
f 103/3/5 88/3/5 87/3/5
f 103/1/5 87/1/5 102/1/5
f 104/3/5 88/3/5 103/3/5
f 105/3/6 106/3/6 113/3/6
f 106/1/6 107/1/6 114/1/6
f 113/3/6 106/3/6 114/3/6
f 107/2/6 108/2/6 115/2/6
f 114/1/6 107/1/6 115/1/6
f 108/1/6 109/1/6 116/1/6
f 115/2/6 108/2/6 116/2/6
f 109/2/6 110/2/6 117/2/6
f 116/1/6 109/1/6 117/1/6
f 110/1/6 111/1/6 118/1/6
f 117/2/6 110/2/6 118/2/6
f 111/3/6 112/3/6 119/3/6
f 118/1/6 111/1/6 119/1/6
f 119/3/6 112/3/6 120/3/6
f 121/3/6 122/3/6 129/3/6
f 122/1/6 123/1/6 130/1/6
f 129/3/6 122/3/6 130/3/6
f 123/2/6 124/2/6 131/2/6
f 130/1/6 123/1/6 131/1/6
f 124/1/6 125/1/6 132/1/6
f 131/2/6 124/2/6 132/2/6
f 125/2/6 126/2/6 133/2/6
f 132/1/6 125/1/6 133/1/6
f 126/1/6 127/1/6 134/1/6
f 133/2/6 126/2/6 134/2/6
f 127/3/6 128/3/6 135/3/6
f 134/1/6 127/1/6 135/1/6
f 135/3/6 128/3/6 136/3/6
f 137/3/6 138/3/6 145/3/6
f 138/1/6 139/1/6 146/1/6
f 145/3/6 138/3/6 146/3/6
f 139/2/6 140/2/6 147/2/6
f 146/1/6 139/1/6 147/1/6
f 140/1/6 141/1/6 148/1/6
f 147/2/6 140/2/6 148/2/6
f 141/2/6 142/2/6 149/2/6
f 148/1/6 141/1/6 149/1/6
f 142/1/6 143/1/6 150/1/6
f 149/2/6 142/2/6 150/2/6
f 143/3/6 144/3/6 151/3/6
f 150/1/6 143/1/6 151/1/6
f 151/3/6 144/3/6 152/3/6
